<svg width="263" height="78" viewBox="0 0 263 78" fill="none" xmlns="http://www.w3.org/2000/svg">
<path d="M245.586 34.9652H232.133V0.000976562H245.45C249.046 0.000976562 252.154 0.700945 254.771 2.10088C257.4 3.48944 259.426 5.4926 260.849 8.11036C262.283 10.7168 263 13.841 263 17.4831C263 21.1252 262.289 24.2552 260.866 26.8729C259.443 29.4793 257.429 31.4825 254.823 32.8824C252.216 34.271 249.137 34.9652 245.586 34.9652ZM241.626 26.9071H245.245C246.975 26.9071 248.449 26.6282 249.667 26.0705C250.896 25.5128 251.829 24.5511 252.467 23.1853C253.115 21.8195 253.44 19.9188 253.44 17.4831C253.44 15.0474 253.11 13.1467 252.449 11.7809C251.801 10.4151 250.845 9.45339 249.581 8.89569C248.329 8.33799 246.793 8.05915 244.972 8.05915H241.626V26.9071Z" fill="white"/>
<path d="M202.228 34.9652V0.000976562H227.426V7.64941H211.72V13.6589H226.129V21.3073H211.72V27.3168H227.358V34.9652H202.228Z" fill="white"/>
<path d="M170.114 34.9652V0.000976562H185.206C187.801 0.000976562 190.071 0.473313 192.018 1.41799C193.964 2.36266 195.478 3.72276 196.559 5.49829C197.64 7.27382 198.181 9.40217 198.181 11.8834C198.181 14.3873 197.623 16.4986 196.508 18.2172C195.404 19.9358 193.85 21.2333 191.847 22.1097C189.855 22.9861 187.528 23.4243 184.864 23.4243H175.85V16.049H182.952C184.068 16.049 185.018 15.9124 185.803 15.6393C186.6 15.3547 187.209 14.9052 187.63 14.2906C188.063 13.676 188.279 12.8736 188.279 11.8834C188.279 10.8818 188.063 10.068 187.63 9.44201C187.209 8.80464 186.6 8.338 185.803 8.04207C185.018 7.73477 184.068 7.58112 182.952 7.58112H179.606V34.9652H170.114ZM190.601 18.9172L199.342 34.9652H189.03L180.494 18.9172H190.601Z" fill="white"/>
<path d="M140.207 34.9652V0.000976562H165.405V7.64941H149.699V13.6589H164.108V21.3073H149.699V27.3168H165.337V34.9652H140.207Z" fill="white"/>
<path d="M108.657 34.9652V0.000976562H123.749C126.344 0.000976562 128.614 0.513149 130.561 1.53749C132.507 2.56184 134.021 4.00161 135.102 5.85681C136.183 7.71201 136.724 9.8802 136.724 12.3614C136.724 14.8653 136.166 17.0335 135.051 18.866C133.947 20.6984 132.393 22.1097 130.39 23.0999C128.398 24.0901 126.071 24.5852 123.407 24.5852H114.393V17.21H121.495C122.611 17.21 123.561 17.0165 124.346 16.6295C125.143 16.2311 125.752 15.6677 126.173 14.9393C126.606 14.2109 126.822 13.3516 126.822 12.3614C126.822 11.3598 126.606 10.5062 126.173 9.80053C125.752 9.08349 125.143 8.53717 124.346 8.16158C123.561 7.77461 122.611 7.58112 121.495 7.58112H118.149V34.9652H108.657Z" fill="white"/>
<path d="M63.8677 0.000976562H75.6818L83.8082 19.805H84.218L92.3444 0.000976562H104.159V34.9652H94.8711V14.7515H94.598L86.813 34.6921H81.2132L73.4282 14.6149H73.1551V34.9652H63.8677V0.000976562Z" fill="white"/>
<path d="M33.9619 34.9652V0.000976562H59.1608V7.64941H43.4542V13.6589H57.8633V21.3073H43.4542V27.3168H59.0925V34.9652H33.9619Z" fill="white"/>
<path d="M0 7.64941V0.000976562H30.3889V7.64941H19.8723V34.9652H10.5166V7.64941H0Z" fill="white"/>
<path d="M231.428 77.0938V41.9014H240.927V55.6484H253.501V41.9014H263V77.0938H253.501V63.3468H240.927V77.0938H231.428Z" fill="white"/>
<path d="M197.443 49.5997V41.9014H227.853V49.5997H217.329V77.0938H207.967V49.5997H197.443Z" fill="white"/>
<path d="M185.51 53.5193C185.362 52.9121 185.129 52.3794 184.81 51.9212C184.491 51.4515 184.092 51.0563 183.614 50.7355C183.147 50.4033 182.6 50.157 181.974 49.9966C181.359 49.8248 180.681 49.7388 179.941 49.7388C178.346 49.7388 176.985 50.1226 175.858 50.8902C174.741 51.6577 173.887 52.7632 173.295 54.2066C172.714 55.6501 172.424 57.3914 172.424 59.4305C172.424 61.4926 172.703 63.2568 173.261 64.7231C173.819 66.1895 174.65 67.3122 175.755 68.0912C176.86 68.8702 178.232 69.2597 179.872 69.2597C181.319 69.2597 182.52 69.0477 183.477 68.6239C184.445 68.2 185.168 67.5986 185.647 66.8196C186.125 66.0406 186.364 65.1241 186.364 64.0702L188.004 64.242H180.009V57.4372H195.521V62.3174C195.521 65.5251 194.844 68.2687 193.488 70.5485C192.144 72.8167 190.288 74.558 187.919 75.7723C185.561 76.9752 182.856 77.5766 179.804 77.5766C176.399 77.5766 173.409 76.8492 170.835 75.3943C168.261 73.9394 166.25 71.8659 164.804 69.1737C163.369 66.4816 162.651 63.2797 162.651 59.568C162.651 56.6582 163.09 54.0806 163.967 51.8353C164.855 49.5899 166.085 47.694 167.657 46.1474C169.229 44.5894 171.045 43.4152 173.107 42.6247C175.168 41.8228 177.378 41.4219 179.736 41.4219C181.809 41.4219 183.733 41.7197 185.51 42.3154C187.298 42.8997 188.876 43.736 190.242 44.8243C191.621 45.9011 192.731 47.1785 193.574 48.6563C194.417 50.1341 194.929 51.7551 195.111 53.5193H185.51Z" fill="white"/>
<path d="M158.294 41.9014V77.0938H150.367L137.725 58.604H137.52V77.0938H128.021V41.9014H136.085L148.522 60.3224H148.795V41.9014H158.294Z" fill="white"/>
<path d="M98.0947 77.0938V41.9014H123.311V49.5997H107.594V55.6484H122.013V63.3468H107.594V69.3955H123.243V77.0938H98.0947Z" fill="white"/>
<path d="M65.959 77.0938V41.9014H81.0615C83.6583 41.9014 85.9305 42.3768 87.8781 43.3276C89.8257 44.2785 91.3405 45.6474 92.4225 47.4346C93.5045 49.2217 94.0455 51.3639 94.0455 53.8613C94.0455 56.3816 93.4874 58.5067 92.3712 60.2365C91.2665 61.9663 89.7118 63.2723 87.7073 64.1544C85.7141 65.0365 83.3849 65.4776 80.7198 65.4776H71.6993V58.0542H78.8063C79.9225 58.0542 80.8735 57.9167 81.6594 57.6417C82.4567 57.3554 83.066 56.9028 83.4874 56.2842C83.9202 55.6656 84.1366 54.858 84.1366 53.8613C84.1366 52.8532 83.9202 52.0341 83.4874 51.404C83.066 50.7625 82.4567 50.2928 81.6594 49.9949C80.8735 49.6856 79.9225 49.531 78.8063 49.531H75.4578V77.0938H65.959ZM86.4601 60.941L95.2072 77.0938H84.8883L76.3462 60.941H86.4601Z" fill="white"/>
<path d="M31.9736 49.5997V41.9014H62.3836V49.5997H51.8597V77.0938H42.4975V49.5997H31.9736Z" fill="white"/>
<path d="M19.7494 52.9007C19.6583 51.7551 19.2312 50.8615 18.4681 50.22C17.7164 49.5785 16.5717 49.2577 15.0341 49.2577C14.0546 49.2577 13.2517 49.378 12.6253 49.6186C12.0102 49.8477 11.5547 50.1627 11.2585 50.5637C10.9624 50.9646 10.8086 51.4229 10.7973 51.9384C10.7745 52.3622 10.8485 52.746 11.0193 53.0897C11.2016 53.4219 11.4863 53.7255 11.8736 54.0004C12.2608 54.2639 12.7562 54.5045 13.3599 54.7222C13.9635 54.9398 14.6811 55.1346 15.5125 55.3064L18.3827 55.925C20.3189 56.3374 21.976 56.8816 23.3542 57.5575C24.7323 58.2334 25.8599 59.0296 26.7369 59.946C27.6139 60.851 28.2574 61.8706 28.6674 63.0048C29.0888 64.1389 29.3052 65.3761 29.3166 66.7165C29.3052 69.0305 28.73 70.9895 27.5911 72.5933C26.4521 74.1972 24.8234 75.4172 22.705 76.2535C20.5979 77.0898 18.0638 77.5079 15.1025 77.5079C12.0615 77.5079 9.40773 77.0554 7.14122 76.1504C4.8861 75.2454 3.13211 73.8535 1.87927 71.9747C0.637812 70.0845 0.0113895 67.6673 0 64.7231H9.02049C9.07744 65.8 9.34509 66.705 9.82345 67.4382C10.3018 68.1714 10.9738 68.727 11.8394 69.105C12.7164 69.4831 13.7585 69.6721 14.9658 69.6721C15.9795 69.6721 16.828 69.5461 17.5114 69.294C18.1947 69.042 18.713 68.6926 19.066 68.2458C19.4191 67.799 19.6013 67.2893 19.6127 66.7165C19.6013 66.178 19.4248 65.7083 19.0831 65.3074C18.7528 64.895 18.2061 64.5284 17.443 64.2076C16.6799 63.8754 15.6492 63.5661 14.3508 63.2797L10.8656 62.5236C7.76764 61.8477 5.32459 60.7193 3.53644 59.1384C1.75968 57.546 0.876992 55.3751 0.888381 52.6257C0.876992 50.3918 1.46925 48.4386 2.66514 46.766C3.87243 45.082 5.54099 43.7703 7.67083 42.8309C9.81206 41.8916 12.2665 41.4219 15.0341 41.4219C17.8587 41.4219 20.3018 41.8973 22.3633 42.8481C24.4248 43.799 26.0136 45.1393 27.1298 46.8691C28.2574 48.5875 28.8268 50.598 28.8382 52.9007H19.7494Z" fill="white"/>
</svg>
